HIERARCHY
ROOT Hips
{
  OFFSET 57.8838 95.319 338.509
  CHANNELS 6 Xposition Yposition Zposition Zrotation Xrotation Yrotation
  JOINT LeftUpLeg
  {
    OFFSET 8.64259 1.95398 -2.38835
    CHANNELS 3 Zrotation Xrotation Yrotation
    JOINT LeftLeg
    {
      OFFSET 43.7702 0 0
      CHANNELS 3 Zrotation Xrotation Yrotation
      JOINT LeftFoot
      {
        OFFSET 40.6238 0 0
        CHANNELS 3 Zrotation Xrotation Yrotation
        JOINT LeftToeBase
        {
          OFFSET 12.7242 0 0
          CHANNELS 3 Zrotation Xrotation Yrotation
          End Site
          {
            OFFSET 0 0 0
          }
        }
      }
    }
  }
  JOINT RightUpLeg
  {
    OFFSET -8.2249 1.95398 -2.59336
    CHANNELS 3 Zrotation Xrotation Yrotation
    JOINT RightLeg
    {
      OFFSET 43.5653 0 0
      CHANNELS 3 Zrotation Xrotation Yrotation
      JOINT RightFoot
      {
        OFFSET 40.6238 0 0
        CHANNELS 3 Zrotation Xrotation Yrotation
        JOINT RightToeBase
        {
          OFFSET 12.7242 0 0
          CHANNELS 3 Zrotation Xrotation Yrotation
          End Site
          {
            OFFSET 0 0 0
          }
        }
      }
    }
  }
  JOINT Spine
  {
    OFFSET 0.165834 0.87714 6.61349
    CHANNELS 3 Zrotation Xrotation Yrotation
    JOINT Spine1
    {
      OFFSET 7.38963 1.71661e-005 0
      CHANNELS 3 Zrotation Xrotation Yrotation
      JOINT Spine2
      {
        OFFSET 11.9445 1.14441e-005 0
        CHANNELS 3 Zrotation Xrotation Yrotation
        JOINT Spine3
        {
          OFFSET 14.7254 4.19617e-005 0
          CHANNELS 3 Zrotation Xrotation Yrotation
          JOINT Spine4
          {
            OFFSET 10.9679 0 0
            CHANNELS 3 Zrotation Xrotation Yrotation
            JOINT RightShoulder
            {
              OFFSET 2.46616 -1.6653 3.69651
              CHANNELS 3 Zrotation Xrotation Yrotation
              JOINT RightArm
              {
                OFFSET 13.0012 0 0
                CHANNELS 3 Zrotation Xrotation Yrotation
                JOINT RightForeArm
                {
                  OFFSET 28.7848 1.62311e-005 0
                  CHANNELS 3 Zrotation Xrotation Yrotation
                  JOINT RightHand
                  {
                    OFFSET 26.5688 1.62095e-005 0
                    CHANNELS 3 Zrotation Xrotation Yrotation
                    End Site
                    {
                      OFFSET 0 0 0
                    }
                  }
                }
              }
            }
            JOINT LeftShoulder
            {
              OFFSET 2.38034 -1.29275 -3.7523
              CHANNELS 3 Zrotation Xrotation Yrotation
              JOINT LeftArm
              {
                OFFSET 16.3182 6.07031e-005 0
                CHANNELS 3 Zrotation Xrotation Yrotation
                JOINT LeftForeArm
                {
                  OFFSET 27.0901 0 0
                  CHANNELS 3 Zrotation Xrotation Yrotation
                  JOINT LeftHand
                  {
                    OFFSET 24.5451 1.51738e-005 0
                    CHANNELS 3 Zrotation Xrotation Yrotation
                    End Site
                    {
                      OFFSET 0 0 0
                    }
                  }
                }
              }
            }
            JOINT Neck
            {
              OFFSET 5.0226 -0.0266342 0
              CHANNELS 3 Zrotation Xrotation Yrotation
              JOINT Head
              {
                OFFSET 6.69364 2.86102e-005 0
                CHANNELS 3 Zrotation Xrotation Yrotation
                End Site
                {
                  OFFSET 0 0 0
                }
              }
            }
          }
        }
      }
    }
  }
}
MOTION
Frames:	15
Frame Time:	0.0416667
-310.209 62.694 352.454 152.77 -27.726 108.177 146.951 60.1247 8.27564 -91.3891 30.3512 -21.1782 19.5184 -41.57 4.64567 119.652 35.4677 -7.68341 164.71 38.3911 -17.3493 -103.974 -30.1362 3.15739 80.5578 -6.26815 -16.4594 33.7872 7.5617 -112.148 -11.6704 6.34405 -82.0719 15.7706 -19.1256 18.9385 4.09003 -18.2901 19.7447 -19.0564 -23.8693 12.2476 0.956215 -23.8693 12.2476 36.2657 -53.651 -169.872 18.4231 25.3309 83.1614 134.493 -39.3812 -59.6969 0.770927 -0.886514 -68.4959 -116.944 -73.1429 51.6217 -5.53373 -49.317 15.9669 19.9133 67.2703 0.0667677 41.3122 -12.7418 -36.3573 -72.7746 -9.29412 13.4167 86.2066 8.47803 13.3268 
-310.291 62.755 352.54 152.539 -27.6906 108.334 146.637 59.9627 8.66426 -91.4161 30.4427 -20.9995 18.9553 -41.8372 4.24463 120.07 35.2762 -8.14219 163.724 38.2434 -16.6343 -103.72 -30.1604 3.50881 81.5936 -7.74516 -15.1711 33.0879 5.54413 -112.184 -11.6857 6.36257 -82.1129 15.7341 -19.1803 18.8538 4.05569 -18.3481 19.6629 -19.1063 -23.8963 12.1458 0.90632 -23.8963 12.1458 36.251 -53.6511 -169.89 18.2986 25.2661 83.2171 134.651 -39.3079 -59.5724 0.779288 -0.889849 -68.4109 -116.926 -73.159 51.6491 -5.70353 -49.3172 15.6256 19.9656 67.8365 0.0683842 41.9096 -12.8905 -36.2518 -72.7795 -9.06417 13.2741 86.3314 8.93256 13.6442 
-310.55 62.9185 352.816 151.836 -27.6001 108.825 145.718 59.4575 9.83248 -91.5565 30.6928 -20.4372 17.2665 -42.6112 3.01421 121.333 34.6595 -9.54267 160.77 37.6747 -14.4861 -102.856 -30.2548 4.59452 84.8569 -11.9518 -11.1305 30.818 -0.950885 -111.499 -11.7305 6.41897 -82.2397 15.6222 -19.3442 18.5913 3.95023 -18.5228 19.4096 -19.2588 -23.975 11.8324 0.753838 -23.975 11.8324 36.2075 -53.6476 -169.943 17.9185 25.0658 83.3847 135.139 -39.0771 -59.1909 0.803381 -0.900106 -68.1493 -116.869 -73.2084 51.7347 -6.22962 -49.3098 14.5789 20.1216 69.583 0.0739515 43.719 -13.3105 -35.872 -72.7849 -8.35089 12.8411 86.696 10.3415 14.6241 
-310.989 63.1052 353.281 150.749 -27.5149 109.624 144.416 58.6435 11.5961 -91.9369 31.018 -19.5226 14.6943 -43.719 1.06578 123.266 33.5934 -11.7396 156.422 36.4784 -11.3352 -101.247 -30.4982 6.31381 90.1314 -17.5325 -4.61904 27.5291 -11.7304 -107.126 -11.7949 6.50658 -82.4425 15.4455 -19.5914 18.1693 3.78363 -18.7873 19.0016 -19.4979 -24.0855 11.334 0.514767 -24.0855 11.334 36.1459 -53.6334 -170.02 17.3191 24.7427 83.6439 135.923 -38.6936 -58.5835 0.838974 -0.914973 -67.7298 -116.772 -73.2864 51.8759 -7.07943 -49.272 12.9151 20.353 72.3922 0.085283 46.5322 -13.8613 -35.1006 -72.7629 -7.19834 12.1739 87.2113 12.6103 16.1897 
-311.614 63.2357 353.934 149.381 -27.5169 110.72 143.006 57.5671 13.7539 -92.6635 31.3494 -18.3088 11.4551 -45.0003 -1.49437 125.664 32.0304 -14.5766 151.557 34.5438 -7.72638 -98.8295 -30.8853 8.55554 96.8318 -22.8867 3.71455 26.9488 -24.1812 -91.5849 -11.8664 6.61829 -82.7122 15.2144 -19.8903 17.6039 3.5656 -19.1095 18.4534 -19.8064 -24.2026 10.6775 0.2062 -24.2026 10.6774 36.0855 -53.5988 -170.11 16.5307 24.3056 83.9759 136.981 -38.1528 -57.7753 0.881841 -0.930956 -67.1651 -116.636 -73.3895 52.0732 -8.23187 -49.1697 10.7004 20.6233 76.1534 0.107796 50.1283 -14.3586 -33.793 -72.6773 -5.63867 11.3332 87.7593 15.6564 18.2811 
-312.424 63.2733 354.762 147.875 -27.709 112.104 141.759 56.3014 16.1204 -93.7227 31.6326 -16.8998 7.71041 -46.3291 -4.55825 128.276 29.9391 -17.8634 147.148 32.041 -4.14192 -95.7813 -31.2846 11.1374 103.814 -26.8229 12.6475 34.0085 -26.757 -57.8435 -11.9288 6.74538 -83.0374 14.9425 -20.2012 16.9161 3.30849 -19.4488 17.7842 -20.1629 -24.2942 9.89752 -0.150277 -24.2942 9.89752 36.0461 -53.5313 -170.2 15.5848 23.7628 84.3606 138.289 -37.4476 -56.7939 0.924719 -0.944006 -66.4677 -116.455 -73.515 52.3289 -9.65493 -48.9586 8.01432 20.8702 80.6768 0.159244 54.2103 -14.5848 -31.8536 -72.4899 -3.70841 10.3872 88.1958 19.3773 20.8476 
-313.409 63.237 355.742 146.422 -28.2139 113.774 140.893 54.9434 18.5559 -94.9583 31.8274 -15.4567 3.56669 -47.6203 -8.01785 130.835 27.3275 -21.396 143.858 29.3715 -0.819942 -92.4975 -31.5424 13.7714 109.886 -29.0981 20.8654 36.5304 -17.1419 -29.7592 -11.9622 6.8777 -83.4027 14.6464 -20.4748 16.1343 3.0276 -19.755 17.0199 -20.5406 -24.3221 9.03948 -0.527938 -24.322 9.03948 36.0503 -53.4162 -170.274 14.5138 23.1232 84.7782 139.821 -36.5707 -55.6708 0.958796 -0.949058 -65.6502 -116.227 -73.6612 52.6462 -11.3035 -48.5861 4.94953 20.9375 85.6576 0.340721 58.3948 -14.344 -29.3096 -72.1681 -1.45352 9.40639 88.3618 23.6431 23.8532 
-314.558 63.167 356.859 145.248 -29.1524 115.745 140.573 53.5942 20.9647 -96.1583 31.918 -14.1712 -0.877814 -48.8228 -11.7531 133.105 24.2551 -24.994 141.923 26.9627 2.20867 -89.3864 -31.615 16.1129 114.453 -30.1516 27.6618 34.2716 -9.33581 -17.3662 -11.9463 7.00536 -83.7915 14.3434 -20.6599 15.2908 2.73897 -19.9755 16.19 -20.9116 -24.247 8.15348 -0.898943 -24.247 8.15348 36.1218 -53.2369 -170.32 13.3492 22.3959 85.2104 141.54 -35.5186 -54.4425 0.973668 -0.940642 -64.7257 -115.948 -73.8284 53.0292 -13.1178 -47.9962 1.60766 -156.49 89.2927 177.91 62.2812 -13.5502 -26.3361 -71.6906 1.07142 8.45725 88.0953 28.2985 27.2891 
-315.858 63.0932 358.102 144.574 -30.6007 118.051 140.891 52.3397 23.2895 -97.1519 31.915 -13.2128 -5.49942 -49.9128 -15.6304 134.92 20.8247 -28.5292 141.31 25.1295 4.98341 -86.7188 -31.5682 17.868 117.495 -30.516 32.954 31.7933 -4.50047 -12.4187 -11.8651 7.12119 -84.188 14.0477 -20.7163 14.4172 2.45531 -20.0688 15.3237 -21.254 -24.0402 7.28483 -1.24134 -24.0402 7.28483 36.2835 -52.9766 -170.324 12.1202 21.5909 85.6399 143.404 -34.2949 -53.1519 0.958511 -0.913424 -63.7089 -115.614 -74.0179 53.4825 -15.0129 -47.135 -1.88824 -158.335 84.5663 179.728 65.5541 -12.2589 -23.186 -71.051 3.80857 7.59588 87.239 33.1739 31.1844 
-317.295 63.0328 359.463 144.606 -32.5548 120.738 141.875 51.2426 25.4845 -97.8286 31.8459 -12.7081 -10.154 -50.8922 -19.512 136.185 17.1676 -31.9244 141.862 24.0527 7.52996 -84.6166 -31.505 18.8506 119.251 -30.5638 36.9605 29.9013 -1.34802 -10.3976 -11.7118 7.22196 -84.5767 13.7683 -20.6218 13.5456 2.1848 -20.0115 14.452 -21.5544 -23.6906 6.47256 -1.54174 -23.6906 6.47256 36.5571 -52.6179 -170.273 10.8545 20.7188 86.0524 145.354 -32.9175 -51.8468 0.903295 -0.863421 -62.617 -115.222 -74.2319 54.0105 -16.8944 -45.9587 -5.41611 -158.701 80.4863 179.844 68.0444 -10.6339 -20.1043 -70.2581 6.69982 6.86926 85.643 38.0932 35.5987 
-318.958 62.9689 360.914 148.119 -33.7015 124.313 144.47 49.5852 25.1335 -97.1441 32.0198 -14.1794 -14.8293 -51.8127 -23.3987 136.895 13.4587 -35.1199 143.49 23.6474 7.38235 -84.3213 -32.2342 17.179 120.156 -30.6424 39.9538 28.4925 0.886244 -9.60179 -11.4983 7.22578 -84.5768 13.4347 -20.2262 13.313 1.84542 -19.6271 14.2015 -21.8274 -23.2435 6.38517 -1.81471 -23.2435 6.38518 36.9621 -52.1435 -170.158 9.57803 19.7922 86.4332 147.315 -31.4242 -50.5829 0.801601 -0.789217 -61.4717 -114.768 -74.4739 54.6169 -18.6608 -44.4393 -8.85284 -159.257 77.2723 179.883 69.7363 -8.88162 -17.2722 -69.3347 9.68857 6.31667 83.1643 42.8756 40.6105 
-319.066 63.3494 362.713 106.404 -54.9039 113.218 125.757 51.3144 65.9822 -109.594 26.117 5.83749 -17.1031 -52.3306 -25.0009 136.637 9.28705 -38.4966 143.322 20.8729 46.1347 -69.1441 -20.3136 41.7782 117.935 -28.3355 42.5336 27.4396 2.49236 -8.78487 -11.0311 6.67869 -89.8304 14.113 -21.7884 3.30216 2.62862 -21.621 4.30419 -21.4459 -21.7214 -3.73651 -1.43327 -21.7214 -3.73651 37.5125 -51.5382 -169.975 8.31412 18.8237 86.773 149.199 -29.8802 -49.4146 0.655069 -0.693991 -60.2995 -114.253 -74.7482 55.304 -20.2223 -42.5736 -12.0989 -160.092 75.0155 179.9 70.7232 -7.17827 -14.7864 -68.3151 12.7218 5.96923 79.668 47.3409 46.3056 
-321.026 63.3191 364.347 115.343 -58.846 120.128 132.013 51.7352 63.1554 -108.312 26.7423 2.87506 -21.1222 -53.5376 -28.346 136.315 5.7599 -41.36 145.494 24.2559 45.3959 -70.0635 -22.3727 36.1907 117.399 -28.8054 43.7361 26.6581 3.73313 -8.89941 -10.5361 6.80259 -89.6498 13.8256 -20.7289 3.44219 2.32149 -20.5566 4.39043 -21.6035 -20.7603 -3.23805 -1.59083 -20.7603 -3.23805 38.2153 -50.7897 -169.723 7.08214 17.827 87.0617 150.907 -28.3689 -48.3929 0.476361 -0.586359 -59.1287 -113.675 -75.0604 56.0727 -21.5062 -40.3879 -15.0762 -161.231 73.7084 179.908 71.1402 -5.63849 -12.6778 -47.4916 13.1074 8.42407 -70.2367 7.91287 2.97794 
-322.983 63.3311 366.031 125.124 -62.6531 128.281 137.658 52.1578 61.4549 -107.013 27.2554 0.0706554 -24.7695 -54.7441 -31.4133 135.554 2.45505 -44.0639 148.069 27.6461 45.3843 -70.7843 -23.9299 31.3794 116.36 -29.0304 44.7741 26.0371 4.73249 -9.06132 -10.03 6.89506 -89.578 13.5896 -19.6977 3.38939 2.06805 -19.5288 4.28641 -21.7168 -19.7674 -2.93653 -1.70419 -19.7675 -2.93653 39.0691 -49.8897 -169.409 5.89845 16.8155 87.2883 152.345 -26.984 -47.561 0.290475 -0.480244 -57.9878 -113.039 -75.4177 56.9224 -22.4857 -37.9346 -17.7669 -162.669 73.2728 179.92 71.1227 -4.32185 -10.9397 -47.8853 12.7142 8.8315 -86.6943 11.2663 3.77817 
-324.912 63.3858 367.744 136.346 -66.1353 138.214 142.723 52.6281 60.6777 -105.749 27.6804 -2.5452 -28.0137 -56.0055 -34.1828 134.435 -0.576204 -46.6218 150.794 30.9442 46.0548 -71.1603 -25.0711 27.2647 114.895 -29.0357 45.6448 25.5352 5.54907 -9.22036 -9.52545 6.96411 -89.5975 13.3933 -18.7116 3.1755 1.85664 -18.5531 4.02446 -21.8002 -18.7683 -2.80736 -1.78753 -18.7683 -2.80736 40.0639 -48.8353 -169.044 4.77532 15.7896 87.4843 153.464 -25.8311 -46.9084 0.132783 -0.392927 -56.9011 -112.348 -75.8299 57.8493 -23.1513 -35.2958 -20.1587 -164.377 73.5926 179.952 70.7884 -3.24642 -9.54466 -46.9286 12.2445 9.59964 -90.5759 11.614 2.84352 
